<?xml version="1.0" encoding="UTF-8"?>
<svg id="Layer_1" data-name="Layer 1" xmlns="http://www.w3.org/2000/svg" viewBox="0 0 1080 1080">
  <defs>
    <style>
      .cls-1 {
        fill: #000;
        stroke-width: 0px;
      }
    </style>
  </defs>
  <path class="cls-1" d="M690.63,616.48c.72,4.63,1.4,7.03,1.41,9.42.03,16.91-.57,33.84.04,50.72.42,11.58-5.01,18.51-14.41,23.74-28.64,15.93-59.26,24.03-92.07,23.17-92.57-2.44-164.77-66.95-177.95-158.87-13.57-94.65,55.37-187.38,150-201.75,94-14.27,181.22,39.18,204.78,127.67,6.2,23.3,6.87,48.34,7.91,72.68,1.21,28.22.02,56.54-.09,84.82-.01,3.05.27,6.09.5,10.92,3.37-2.18,5.33-3.15,6.93-4.53,21.92-18.89,32.16-43.98,36.42-71.64,12.46-80.9-8.28-151.91-67.93-208.77-121.03-115.36-320.51-65.35-373.94,92.95-44.58,132.08,36.96,271.69,173.98,297.98,37.46,7.19,74.26,2.03,110.96-5.48,14.64-3,17.55-.69,17.96,14.47.2,7.28.33,14.57.77,21.84.81,13.52-2.72,18.72-15.74,21.93-51.17,12.62-102.33,12.96-152.64-3.3-111.74-36.13-180.21-112.34-200.92-227.7-27.44-152.91,75.83-300.25,229.39-327.83,162.9-29.25,305.71,75.84,334.8,229.92,10.22,54.14,5.88,106.91-16.28,157.4-14.63,33.33-37.52,59.66-73.2,71.98-18.53,6.4-37.89,5.62-57.15,4.21-7.84-.58-11.09-4.9-11.08-12.7.03-43.44.15-86.88-.35-130.32-.24-20.64.34-41.63-3.14-61.83-10.34-60.15-69.25-105.28-128.01-99.9-67.23,6.16-116.83,56.72-117.07,120.92-.2,53.1,22.2,93.62,71.85,115.75,50.34,22.43,96.56,14.19,137.76-22.32,4.97-4.4,9.67-9.09,16.51-15.54Z"/>
  <path class="cls-1" d="M550.25,157.66c8.23-.65,12.82,3.01,15.09,10.63,3.06,10.31,6.77,20.44,9.51,30.83,2.84,10.78-.23,14.37-11.78,16.3-20.36,3.4-41.28,5.01-60.91,10.91-130.66,39.32-211.01,126.41-234.82,260.51-30.18,169.93,77.16,329.47,244.95,369.83,16.92,4.07,34.37,6.06,51.65,8.5,14.27,2.01,16.74,5.21,12.59,18.79-2.72,8.9-5.58,17.76-8.44,26.61-3.25,10.04-7.01,12.63-17.39,11.64-63.25-6.01-121.84-25.76-174.41-61.53-94.06-64-150.81-152.54-167.96-264.98-30.44-199.54,101.32-388.56,298.94-430.54,14.22-3.02,28.65-5.04,42.98-7.52Z"/>
</svg>