<?xml version="1.0" encoding="UTF-8"?>
<svg id="Layer_1" data-name="Layer 1" xmlns="http://www.w3.org/2000/svg" viewBox="0 0 1080 1080">
  <defs>
    <style>
      .cls-1 {
        font-size: 111px;
      }

      .cls-1, .cls-2 {
        fill: #fff;
      }

      .cls-3 {
        font-family: Cairo-Bold, Cairo;
        font-weight: 700;
      }

      .cls-2 {
        stroke-width: 0px;
      }

      .cls-4 {
        font-family: Cairo-Light, Cairo;
        font-weight: 300;
      }
    </style>
  </defs>
  <text class="cls-1" transform="translate(222.14 853.78)"><tspan class="cls-3" x="0" y="0">CAT </tspan><tspan class="cls-4" x="205.8" y="0">Reloaded</tspan></text>
  <g>
    <path class="cls-2" d="M649.34,511.76c.54,3.48,1.05,5.27,1.06,7.07.03,12.68-.43,25.38.03,38.05.31,8.69-3.76,13.89-10.81,17.81-21.49,11.95-44.45,18.03-69.07,17.38-69.45-1.83-123.61-50.23-133.5-119.18-10.18-71.01,41.54-140.57,112.53-151.35,70.52-10.71,135.95,29.39,153.62,95.78,4.65,17.48,5.15,36.27,5.93,54.52.91,21.17.01,42.42-.07,63.63,0,2.29.2,4.57.37,8.19,2.53-1.64,4-2.36,5.2-3.4,16.45-14.17,24.13-32.99,27.32-53.75,9.35-60.69-6.21-113.96-50.96-156.62-90.8-86.55-240.45-49.03-280.53,69.73-33.45,99.09,27.73,203.82,130.52,223.55,28.1,5.39,55.71,1.52,83.24-4.11,10.98-2.25,13.16-.52,13.47,10.85.15,5.46.25,10.93.58,16.38.61,10.14-2.04,14.04-11.81,16.45-38.39,9.47-76.76,9.72-114.51-2.48-83.83-27.1-135.2-84.27-150.73-170.82-20.59-114.71,56.89-225.25,172.09-245.94,122.21-21.95,229.35,56.9,251.17,172.48,7.67,40.61,4.41,80.2-12.21,118.09-10.98,25.01-28.15,44.76-54.92,54-13.9,4.8-28.43,4.22-42.87,3.16-5.88-.43-8.32-3.68-8.31-9.53.02-32.59.11-65.18-.26-97.76-.18-15.48.25-31.23-2.35-46.38-7.75-45.13-51.95-78.98-96.03-74.95-50.44,4.62-87.65,42.55-87.82,90.72-.15,39.84,16.65,70.24,53.9,86.84,37.77,16.83,72.44,10.64,103.35-16.74,3.73-3.3,7.26-6.82,12.38-11.66Z"/>
    <path class="cls-2" d="M544.02,167.56c6.18-.49,9.62,2.26,11.32,7.97,2.3,7.74,5.08,15.34,7.13,23.13,2.13,8.09-.17,10.78-8.84,12.23-15.27,2.55-30.97,3.76-45.69,8.19-98.02,29.5-158.3,94.83-176.16,195.43-22.64,127.48,57.89,247.17,183.76,277.45,12.69,3.05,25.79,4.55,38.75,6.37,10.7,1.51,12.56,3.91,9.45,14.1-2.04,6.68-4.18,13.32-6.33,19.96-2.43,7.53-5.26,9.47-13.04,8.73-47.45-4.51-91.41-19.32-130.85-46.16-70.57-48.02-113.14-114.44-126-198.79-22.84-149.7,76.01-291.5,224.27-322.99,10.67-2.27,21.49-3.78,32.24-5.64Z"/>
  </g>
</svg>